HIERARCHY
ROOT Hips
{
  OFFSET 81.5892 83.7393 19.5082
  CHANNELS 6 Xposition Yposition Zposition Zrotation Xrotation Yrotation
  JOINT spine
  {
    OFFSET 0 6.84637 0.3937
    CHANNELS 3 Zrotation Xrotation Yrotation
    JOINT spine1
    {
      OFFSET 0 9.49621 0
      CHANNELS 3 Zrotation Xrotation Yrotation
      JOINT spine2
      {
        OFFSET 0 9.09909 0
        CHANNELS 3 Zrotation Xrotation Yrotation
        JOINT Neck
        {
          OFFSET 0 23.3612 1.11378
          CHANNELS 3 Zrotation Xrotation Yrotation
          JOINT Head
          {
            OFFSET 0 7.05802 0
            CHANNELS 3 Zrotation Xrotation Yrotation
            End Site
            {
              OFFSET 0 17.0844 -5.63419
            }
          }
        }
        JOINT RightShoulder
        {
          OFFSET -3.83136 9.82631 -0.533491
          CHANNELS 3 Zrotation Xrotation Yrotation
          JOINT RightArm
          {
            OFFSET 0 12.8881 0
            CHANNELS 3 Zrotation Xrotation Yrotation
            JOINT RightArmRoll
            {
              OFFSET 0 6.50617 0
              CHANNELS 3 Zrotation Xrotation Yrotation
              JOINT RightForeArm
              {
                OFFSET 0 18.9501 0
                CHANNELS 3 Zrotation Xrotation Yrotation
                JOINT RightForeArmRoll
                {
                  OFFSET 0 7.30092 0
                  CHANNELS 3 Zrotation Xrotation Yrotation
                  JOINT RightHand
                  {
                    OFFSET 0 14.6514 0
                    CHANNELS 3 Zrotation Xrotation Yrotation
                    End Site
                    {
                      OFFSET 0 0 0
                    }
                  }
                }
              }
            }
          }
        }
        JOINT LeftShoulder
        {
          OFFSET 3.83136 9.82631 -0.533491
          CHANNELS 3 Zrotation Xrotation Yrotation
          JOINT LeftArm
          {
            OFFSET 0 12.8881 0
            CHANNELS 3 Zrotation Xrotation Yrotation
            JOINT LeftArmRoll
            {
              OFFSET 0 6.50616 0
              CHANNELS 3 Zrotation Xrotation Yrotation
              JOINT LeftForeArm
              {
                OFFSET 0 18.9501 0
                CHANNELS 3 Zrotation Xrotation Yrotation
                JOINT LeftForeArmRoll
                {
                  OFFSET 0 7.30092 0
                  CHANNELS 3 Zrotation Xrotation Yrotation
                  JOINT LeftHand
                  {
                    OFFSET 0 14.6514 0
                    CHANNELS 3 Zrotation Xrotation Yrotation
                    End Site
                    {
                      OFFSET 0 0 0
                    }
                  }
                }
              }
            }
          }
        }
      }
    }
  }
  JOINT RightUpLeg
  {
    OFFSET -6.06837 -1.11278 -0.933477
    CHANNELS 3 Zrotation Xrotation Yrotation
    JOINT RightUpLegRoll
    {
      OFFSET 0 17.1796 0
      CHANNELS 3 Zrotation Xrotation Yrotation
      JOINT RightLeg
      {
        OFFSET 0 -21.2743 0
        CHANNELS 3 Zrotation Xrotation Yrotation
        JOINT RightLegRoll
        {
          OFFSET 0 21.3439 0
          CHANNELS 3 Zrotation Xrotation Yrotation
          JOINT RightFoot
          {
            OFFSET 0 17.7652 0
            CHANNELS 3 Zrotation Xrotation Yrotation
            JOINT RightToeBase
            {
              OFFSET 0 14.8508 0
              CHANNELS 3 Zrotation Xrotation Yrotation
              End Site
              {
                OFFSET 0.0062947 7.19213 -0.829005
              }
            }
          }
        }
      }
    }
  }
  JOINT LeftUpLeg
  {
    OFFSET 6.06837 -1.11278 -0.933477
    CHANNELS 3 Zrotation Xrotation Yrotation
    JOINT LeftUpLegRoll
    {
      OFFSET 0 17.1797 0
      CHANNELS 3 Zrotation Xrotation Yrotation
      JOINT LeftLeg
      {
        OFFSET 0 21.2742 0
        CHANNELS 3 Zrotation Xrotation Yrotation
        JOINT LeftLegRoll
        {
          OFFSET 0 21.5412 0
          CHANNELS 3 Zrotation Xrotation Yrotation
          JOINT LeftFoot
          {
            OFFSET 0 17.5679 0
            CHANNELS 3 Zrotation Xrotation Yrotation
            JOINT LeftToeBase
            {
              OFFSET 0 14.8508 0
              CHANNELS 3 Zrotation Xrotation Yrotation
              End Site
              {
                OFFSET -0.0282102 7.19213 -0.829005
              }
            }
          }
        }
      }
    }
  }
}
MOTION
Frames: 5
Frame Time: 0.00208333
46.439 91.2536 2.62411 2.44962 -1.95646 -2.08622 0.15597 -0.924614 0.0694849 0.312479 2.14919 0.109835 0.311464 3.79425 0.104674 -14.3245 39.514 11.7253 1.23831 -2.38223 4.41979 58.2685 10.1287 6.36712 115.527 31.0448 -43.3939 6.08628e-007 -2.66362e-006 -8.70119e-006 8.42299 76.2986 -9.40896 -1.00833e-005 1.10105e-005 -3 8.03016 -4.95094 0.697535 -65.0899 -1.44287 1.51127 -96.6662 18.885 51.7072 -3.08332e-006 -1.20376e-006 -2.78643e-006 154.372 64.0913 -127.797 1.0067e-005 7.99346e-006 3.00494 -8.0313 -4.95084 -0.697688 178.386 4.03126 0.134597 180 7.01558e-015 178.973 177.218 8.82775 179.906 -7.8112e-008 3.1441e-006 0.0968904 -18.4279 67.7103 19.3046 8.12949 25.233 -3.48475 -173.313 4.32841 -1.2524 4.54188e-006 -4.6773e-006 -1.14415 -1.31692 -12.0563 0.279279 -1.37099e-006 -3.52311e-006 -0.117958 17.95 67.0318 -18.7461 -8.13649 25.2326 3.48774 
46.4165 91.2632 2.62464 2.47329 -1.95987 -2.07669 0.154104 -0.92686 0.0697179 0.30875 2.14505 0.11159 0.30771 3.79011 0.106493 -14.3143 39.5668 11.7605 1.17068 -2.466 4.4468 58.2807 10.1522 6.37856 115.505 31.1029 -43.2174 6.08628e-007 -2.66362e-006 -8.70119e-006 8.44387 76.2782 -9.42724 -1.00833e-005 1.10105e-005 -3 8.03016 -4.95094 0.697535 -65.1424 -1.39127 1.48868 -96.8176 19.0368 51.5176 -3.08332e-006 -1.20376e-006 -2.78643e-006 154.377 64.2594 -128.007 1.0067e-005 7.99346e-006 3.00494 -8.0313 -4.95084 -0.697688 178.38 4.03879 0.133873 180 7.01558e-015 178.973 177.226 8.84331 179.905 -7.8112e-008 3.1441e-006 0.0968904 -18.424 67.7056 19.3004 8.12949 25.233 -3.48475 -173.308 4.41875 -1.26976 4.54188e-006 -4.6773e-006 -1.14416 -1.32523 -12.2027 0.281832 -1.37099e-006 -3.52311e-006 -0.120621 17.955 67.0383 -18.7515 -8.13649 25.2326 3.48774 
46.3967 91.2603 2.62255 2.49695 -1.96312 -2.06723 0.152245 -0.929226 0.0699009 0.305034 2.1407 0.1133 0.30397 3.78576 0.108267 -14.3044 39.6207 11.7955 1.10344 -2.55012 4.47342 58.2927 10.1763 6.39035 115.481 31.1593 -43.0367 6.08628e-007 -2.66362e-006 -8.70119e-006 8.47025 76.253 -9.44895 -1.00833e-005 1.10105e-005 -3 8.03016 -4.95094 0.697535 -65.195 -1.33888 1.46565 -96.9652 19.1843 51.3294 -3.08332e-006 -1.20376e-006 -2.78643e-006 154.385 64.4242 -128.218 1.0067e-005 7.99346e-006 3.00494 -8.0313 -4.95084 -0.697688 178.374 4.04633 0.132986 180 7.01558e-015 178.973 177.235 8.85887 179.904 -7.8112e-008 3.1441e-006 0.0968904 -18.4202 67.7009 19.2963 8.12949 25.233 -3.48475 -173.303 4.50786 -1.28693 4.54188e-006 -4.6773e-006 -1.14415 -1.33366 -12.3471 0.284333 -1.37099e-006 -3.52311e-006 -0.123249 17.9599 67.0447 -18.7569 -8.13649 25.2326 3.48774 
46.3733 91.2642 2.62471 2.52061 -1.96627 -2.05781 0.15039 -0.931676 0.0700489 0.301329 2.13619 0.11498 0.30024 3.78125 0.11001 -14.2949 39.6755 11.8305 1.03649 -2.63449 4.49978 58.3045 10.2007 6.4024 115.456 31.2143 -42.853 6.08628e-007 -2.66362e-006 -8.70119e-006 8.50044 76.2244 -9.47302 -1.00833e-005 1.10105e-005 -3 8.03016 -4.95094 0.697535 -65.2476 -1.28593 1.44231 -97.1098 19.3289 51.1421 -3.08332e-006 -1.20376e-006 -2.78643e-006 154.397 64.5865 -128.429 1.0067e-005 7.99346e-006 3.00494 -8.0313 -4.95084 -0.697688 178.368 4.05388 0.131986 180 7.01558e-015 178.973 177.243 8.87442 179.903 -7.8112e-008 3.1441e-006 0.0968904 -18.4165 67.6964 19.2923 8.12949 25.233 -3.48475 -173.298 4.59609 -1.30397 4.54188e-006 -4.6773e-006 -1.14414 -1.34218 -12.4901 0.2868 -1.37099e-006 -3.52311e-006 -0.125852 17.9649 67.0512 -18.7622 -8.13649 25.2326 3.48774 
46.3423 91.2611 2.61893 2.54427 -1.96936 -2.04841 0.148538 -0.934173 0.0701769 0.297629 2.1316 0.116642 0.296517 3.77666 0.111735 -14.2856 39.7307 11.8655 0.96973 -2.719 4.526 58.3162 10.2253 6.4146 115.431 31.2684 -42.6675 6.08628e-007 -2.66362e-006 -8.70119e-006 8.53274 76.194 -9.49838 -1.00833e-005 1.10105e-005 -3 8.03016 -4.95094 0.697535 -65.3001 -1.23267 1.41879 -97.2524 19.472 50.9554 -3.08332e-006 -1.20376e-006 -2.78643e-006 154.411 64.7474 -128.643 1.0067e-005 7.99346e-006 3.00494 -8.0313 -4.95084 -0.697688 178.362 4.06143 0.130921 180 7.01558e-015 178.974 177.252 8.88993 179.903 -7.8112e-008 3.1441e-006 0.0968904 -18.4128 67.6919 19.2883 8.12949 25.233 -3.48475 -173.293 4.68383 -1.32094 4.54188e-006 -4.6773e-006 -1.14411 -1.35074 -12.6324 0.289249 -1.37099e-006 -3.52311e-006 -0.128441 17.9698 67.0576 -18.7675 -8.13649 25.2326 3.48774 
